<?xml version="1.0" standalone="no"?>
<!DOCTYPE svg PUBLIC "-//W3C//DTD SVG 20010904//EN"
 "http://www.w3.org/TR/2001/REC-SVG-20010904/DTD/svg10.dtd">
<svg version="1.0" xmlns="http://www.w3.org/2000/svg"
 width="800.000000pt" height="800.000000pt" viewBox="0 0 800.000000 800.000000"
 preserveAspectRatio="xMidYMid meet">
<metadata>
Created by potrace 1.14, written by Peter Selinger 2001-2017
</metadata>
<g transform="translate(0.000000,800.000000) scale(0.100000,-0.100000)"
fill="#000000" stroke="none">
<path d="M1670 6074 c0 -14 -2 -16 -9 -6 -6 10 -10 9 -14 -7 -3 -14 -10 -19
-21 -15 -9 3 -16 2 -16 -3 0 -4 -9 -14 -21 -21 -12 -8 -18 -9 -15 -3 4 7 1 8
-8 5 -9 -3 -14 -11 -13 -17 1 -7 -7 -12 -18 -12 -13 0 -20 -7 -19 -17 1 -13
-2 -15 -15 -9 -18 10 -45 -11 -33 -25 4 -5 -1 -2 -11 5 -15 12 -17 12 -11 -2
4 -12 0 -15 -19 -13 -17 2 -24 -1 -20 -9 2 -7 -1 -16 -8 -21 -8 -5 -10 -3 -4
5 5 9 1 9 -14 -1 -12 -7 -21 -17 -21 -22 0 -4 -7 -3 -15 4 -12 10 -13 8 -10
-10 3 -18 2 -20 -10 -10 -12 10 -15 10 -15 0 0 -7 -7 -10 -16 -6 -15 6 -15 4
-3 -11 7 -10 9 -15 5 -11 -5 4 -16 2 -24 -5 -13 -10 -14 -9 -8 3 4 8 -2 4 -14
-10 -12 -14 -19 -19 -15 -13 4 9 1 11 -10 7 -9 -4 -13 -9 -10 -12 3 -4 -9 -12
-27 -18 -18 -6 -32 -17 -30 -24 2 -11 0 -11 -13 0 -13 11 -16 11 -13 0 2 -7
-3 -15 -11 -18 -9 -3 -11 0 -6 8 6 9 4 11 -4 6 -7 -5 -10 -15 -6 -23 5 -14 3
-14 -12 -2 -14 12 -16 12 -8 0 6 -11 4 -13 -8 -8 -12 4 -14 2 -10 -11 6 -15 5
-15 -11 -3 -15 12 -17 12 -14 0 2 -8 -4 -13 -14 -13 -10 1 -15 -2 -12 -7 3 -5
-1 -9 -10 -9 -8 0 -16 -4 -18 -10 -1 -5 -14 -11 -27 -13 -13 -2 -31 -13 -40
-24 -9 -11 -23 -17 -30 -15 -9 3 -11 0 -6 -8 6 -10 1 -12 -18 -8 -14 3 -26 2
-25 -1 3 -26 -3 -33 -17 -21 -13 11 -14 10 -9 -5 5 -12 4 -16 -4 -11 -6 3 -13
2 -17 -4 -4 -6 -11 -7 -17 -4 -7 5 -9 1 -5 -9 4 -12 2 -14 -10 -10 -12 5 -14
3 -8 -7 6 -9 4 -11 -4 -6 -7 5 -19 0 -27 -10 -9 -11 -13 -13 -9 -4 4 8 -3 4
-14 -9 -12 -13 -21 -18 -21 -12 0 7 -5 9 -10 6 -6 -4 -7 -11 -4 -17 4 -6 2 -8
-4 -4 -6 3 -18 -1 -26 -10 -9 -9 -32 -20 -51 -25 -19 -6 -34 -13 -34 -17 3
-19 -2 -23 -16 -12 -15 12 -16 11 -19 -12 0 -7 -10 -13 -20 -13 -11 0 -21 -6
-24 -13 -2 -6 -8 -10 -13 -6 -5 3 -9 -3 -9 -13 0 -15 -2 -16 -10 -3 -7 11 -10
11 -10 2 0 -7 -4 -10 -10 -7 -5 3 -10 -1 -10 -10 0 -11 -5 -15 -15 -11 -8 3
-15 1 -15 -4 0 -5 -9 -12 -20 -15 -11 -4 -18 -11 -15 -16 4 -5 2 -9 -4 -9 -5
0 -11 6 -13 12 -3 8 -9 4 -17 -10 -8 -14 -21 -22 -39 -22 -21 0 -24 -2 -12
-10 12 -8 11 -10 -7 -10 -13 0 -23 -4 -23 -10 0 -5 -7 -10 -15 -10 -8 0 -15
-6 -15 -12 0 -9 -4 -8 -10 2 -8 13 -10 12 -10 -3 0 -10 -5 -15 -10 -12 -17 11
-52 -5 -42 -18 5 -7 8 -22 6 -34 -2 -13 1 -23 6 -23 6 0 10 -5 10 -11 0 -6 -6
-9 -13 -6 -10 4 -13 -2 -9 -20 3 -18 7 -21 13 -11 5 7 9 8 9 3 0 -6 -5 -16
-12 -23 -18 -18 -18 -51 1 -44 14 5 14 3 2 -11 -9 -12 -10 -17 -2 -17 7 0 10
-4 6 -10 -3 -5 -13 -6 -22 -3 -15 6 -16 5 -3 -9 8 -9 18 -14 21 -12 3 2 4 -9
2 -24 -3 -15 -6 -40 -7 -55 -2 -16 -9 -33 -17 -39 -11 -8 -11 -9 2 -5 12 4 16
-1 16 -19 0 -13 -3 -21 -8 -18 -5 3 -6 -2 -3 -10 3 -9 11 -13 18 -9 6 3 2 -4
-8 -16 -16 -17 -17 -21 -4 -16 17 7 20 -17 3 -32 -4 -4 -5 -2 -1 5 4 6 2 12
-4 12 -7 0 -9 -7 -6 -16 3 -9 6 -18 6 -20 0 -3 6 -2 13 2 6 4 3 -3 -7 -15 -15
-16 -16 -20 -5 -16 10 4 16 0 16 -9 0 -8 -6 -12 -13 -9 -6 2 -15 -1 -19 -7 -3
-6 -3 -10 2 -9 20 3 34 -2 28 -11 -4 -6 -12 -7 -18 -3 -7 3 -4 -2 5 -13 21
-24 21 -28 5 -62 -13 -28 -12 -76 2 -67 5 2 6 -8 4 -23 -3 -15 -6 -40 -7 -55
-2 -16 -9 -33 -17 -39 -11 -8 -11 -9 2 -5 12 4 16 -1 16 -19 0 -13 -3 -21 -8
-18 -5 3 -6 -2 -3 -10 3 -9 11 -13 18 -9 6 3 2 -4 -8 -16 -16 -17 -17 -21 -4
-16 17 7 20 -17 3 -32 -4 -4 -5 -2 -1 5 4 6 2 12 -4 12 -7 0 -9 -7 -6 -16 3
-9 6 -18 6 -20 0 -3 6 -2 13 2 6 4 3 -3 -7 -15 -15 -16 -16 -20 -5 -16 10 4
16 0 16 -9 0 -8 -6 -12 -13 -9 -6 2 -15 -1 -19 -7 -3 -6 -3 -10 2 -9 20 3 34
-2 28 -11 -4 -6 -12 -7 -18 -3 -7 3 -3 -4 8 -16 11 -13 19 -25 18 -27 -19 -33
-28 -63 -25 -82 2 -12 7 -20 11 -17 5 2 6 -8 4 -23 -3 -15 -6 -40 -7 -55 -2
-16 -9 -33 -17 -39 -11 -8 -11 -9 2 -5 12 4 17 -1 17 -19 0 -13 -4 -21 -9 -18
-5 3 -6 -2 -3 -10 3 -9 11 -13 18 -9 6 3 2 -4 -8 -16 -16 -17 -17 -21 -4 -16
17 7 20 -17 3 -32 -4 -4 -5 -2 -1 5 4 6 2 12 -4 12 -7 0 -9 -7 -6 -16 3 -9 6
-18 6 -20 0 -3 6 -2 12 2 7 4 4 -3 -6 -15 -15 -16 -16 -20 -5 -16 10 4 16 0
16 -9 0 -8 -6 -12 -13 -9 -6 2 -15 -1 -19 -7 -3 -6 -3 -10 2 -9 20 3 34 -2 28
-11 -4 -6 -12 -7 -18 -3 -7 3 -4 -2 5 -13 21 -24 21 -28 5 -62 -13 -28 -12
-76 2 -67 5 2 6 -6 4 -18 -14 -80 -14 -97 -4 -97 6 0 11 -9 11 -20 0 -13 5
-18 15 -14 8 3 26 -6 41 -23 15 -15 24 -22 19 -14 -12 20 16 3 33 -21 7 -10
23 -18 36 -18 12 0 32 -9 44 -20 12 -11 28 -20 37 -20 10 0 13 -5 9 -12 -5 -8
-2 -9 9 -5 12 4 17 1 17 -11 0 -15 2 -15 10 -2 8 13 10 13 10 -2 0 -9 5 -20
12 -24 7 -4 8 -3 4 4 -4 7 -2 12 3 12 6 0 11 -4 11 -10 0 -5 7 -10 15 -10 8 0
15 -4 15 -10 0 -5 7 -10 16 -10 9 0 12 -5 8 -12 -5 -8 0 -7 11 2 15 12 17 12
10 1 -6 -11 -4 -13 9 -8 9 4 15 3 13 -1 -3 -4 1 -12 8 -19 11 -10 15 -10 18 0
4 8 6 7 7 -3 0 -8 17 -25 37 -38 21 -14 31 -17 24 -8 -18 22 -9 20 17 -3 12
-10 18 -22 14 -26 -4 -4 3 -3 15 4 25 13 44 15 24 2 -11 -7 -8 -12 12 -26 14
-9 32 -13 38 -9 8 5 9 3 4 -6 -6 -10 -4 -12 8 -7 9 3 19 1 23 -5 4 -7 3 -8 -4
-4 -7 4 -12 4 -12 -1 0 -4 12 -13 26 -20 23 -11 24 -10 12 5 -9 11 -6 11 13
-3 15 -11 25 -23 22 -27 -2 -4 4 -5 13 -1 13 5 15 3 9 -8 -8 -12 -6 -12 9 0 9
8 16 10 15 5 -4 -23 2 -33 18 -27 9 4 14 2 10 -3 -3 -6 4 -11 15 -11 12 -1 26
-7 32 -14 8 -9 7 -10 -3 -4 -9 5 -12 4 -8 -3 4 -5 16 -8 26 -5 10 3 22 -1 26
-8 5 -8 4 -10 -3 -5 -7 4 -12 2 -12 -3 0 -6 10 -10 23 -8 14 1 21 -3 19 -11
-1 -8 2 -11 8 -7 5 3 10 1 10 -6 0 -8 4 -8 16 1 12 11 15 11 12 -1 -2 -9 4
-13 16 -11 12 2 16 -1 10 -9 -5 -9 -2 -10 11 -5 15 5 16 4 6 -8 -10 -11 -9
-14 1 -12 7 1 18 5 24 9 7 4 11 0 10 -11 0 -11 6 -17 18 -17 11 0 21 -6 24
-13 2 -6 10 -12 18 -12 8 0 14 -5 14 -12 0 -6 3 -8 7 -5 3 4 12 -1 20 -11 9
-10 12 -11 7 -2 -5 10 -1 9 14 -3 12 -11 26 -16 34 -11 7 4 10 4 6 -1 -11 -11
18 -35 46 -37 13 -1 22 -7 19 -12 -4 -5 1 -7 10 -3 11 4 14 2 10 -9 -4 -10 2
-14 22 -14 17 0 24 -4 19 -12 -5 -8 -2 -9 9 -5 16 6 22 -4 18 -27 -1 -5 4 -4
12 3 12 9 18 8 31 -4 9 -9 20 -14 26 -10 6 4 7 -1 3 -11 -5 -13 -3 -16 10 -11
9 3 19 1 23 -5 5 -7 2 -8 -7 -3 -8 5 -11 4 -6 -1 5 -5 13 -10 18 -10 5 -1 14
-2 20 -3 5 0 7 -7 3 -13 -5 -8 0 -7 11 2 10 8 16 11 13 5 -3 -5 4 -19 15 -30
11 -11 16 -13 12 -5 -4 8 2 5 15 -8 12 -13 28 -21 36 -18 7 3 16 1 19 -5 4 -5
10 -7 15 -4 4 3 14 -3 21 -12 10 -12 10 -14 2 -9 -7 4 -13 2 -13 -4 0 -6 10
-8 26 -4 19 5 25 4 20 -5 -6 -10 12 -16 36 -12 4 0 4 -7 1 -16 -4 -11 -3 -14
5 -9 7 4 12 2 12 -6 0 -9 3 -9 10 2 8 13 10 12 10 -4 0 -11 3 -16 7 -13 3 4
12 -1 20 -11 9 -10 11 -11 7 -2 -7 13 -5 13 9 2 9 -8 22 -10 29 -6 8 5 8 1 -2
-11 -9 -11 -10 -16 -2 -11 7 4 12 2 12 -6 0 -9 3 -9 10 2 6 10 10 11 10 3 0
-7 7 -13 16 -13 10 0 14 -6 11 -14 -4 -10 0 -12 14 -9 10 3 19 1 19 -5 0 -5 7
-13 16 -16 12 -5 14 -3 8 7 -5 7 2 1 16 -13 14 -14 21 -19 16 -10 -5 8 3 3 17
-12 14 -15 28 -24 31 -21 3 3 12 1 19 -5 8 -7 17 -9 21 -5 4 4 4 -1 1 -12 -7
-20 -6 -20 10 0 l17 20 -4 -20 c-2 -15 3 -21 20 -23 17 -3 22 -8 18 -19 -6
-13 -4 -14 9 -3 9 7 15 9 14 4 -4 -21 2 -26 16 -14 12 10 15 10 15 -3 0 -13
23 -26 55 -31 6 -1 8 -10 7 -21 -3 -15 -1 -17 10 -7 12 9 19 7 36 -9 12 -11
26 -18 31 -15 5 3 15 -2 22 -12 13 -16 13 -16 -6 -2 -18 14 -19 14 -7 -2 8 -9
20 -14 28 -11 8 3 14 0 14 -6 0 -6 6 -10 13 -8 6 1 11 -4 9 -12 -3 -12 -1 -12
14 0 15 12 17 12 9 0 -6 -11 -4 -13 8 -8 12 4 14 2 10 -11 -3 -9 -3 -14 2 -10
4 4 15 2 23 -5 13 -10 15 -9 8 3 -4 9 -1 8 7 -2 8 -10 20 -18 26 -18 7 0 20
-9 29 -20 10 -10 24 -20 32 -22 8 -2 21 -9 28 -16 8 -7 18 -10 23 -7 5 4 9 -2
9 -12 0 -15 2 -16 10 -3 6 10 10 11 10 3 0 -7 7 -13 15 -13 8 0 14 -5 12 -11
-1 -6 4 -14 12 -17 10 -3 11 0 5 9 -7 12 -5 12 9 0 9 -7 14 -17 11 -22 -8 -13
10 -11 25 4 11 10 13 9 7 -1 -4 -6 -2 -12 4 -12 6 0 8 -5 4 -12 -5 -8 0 -9 14
-6 15 4 22 2 22 -9 0 -8 5 -11 10 -8 6 3 10 2 10 -4 0 -6 8 -7 17 -4 12 5 15
2 10 -9 -4 -12 -1 -14 15 -10 16 4 19 2 13 -8 -6 -10 -4 -12 8 -7 11 4 17 1
17 -8 0 -8 5 -15 11 -15 5 0 7 6 4 13 -3 6 2 2 11 -10 9 -13 23 -23 31 -23 8
0 11 -5 7 -12 -6 -10 -4 -10 7 0 19 17 28 15 24 -6 -2 -11 3 -19 10 -19 8 0
12 3 10 7 -2 4 2 7 10 7 8 0 12 -8 10 -20 -4 -16 -2 -17 12 -5 15 11 16 11 10
-4 -4 -12 -2 -15 9 -11 7 3 14 0 14 -7 0 -6 5 -8 10 -5 6 3 10 -1 10 -10 0
-17 42 -17 57 0 5 4 2 5 -6 0 -9 -5 -12 -4 -7 3 4 7 14 12 22 12 8 0 14 7 14
16 0 14 2 15 17 3 11 -10 14 -10 9 -1 -4 7 -1 12 8 12 9 0 16 4 16 10 0 5 3 9
8 9 19 -3 33 2 27 11 -3 6 3 10 14 10 11 0 23 5 27 12 5 7 3 8 -6 3 -9 -5 -11
-4 -6 4 6 9 11 9 24 -1 10 -8 13 -9 9 -1 -8 13 50 46 64 37 5 -3 8 -2 7 3 -2
4 0 8 4 8 4 0 14 9 23 20 9 11 13 13 9 5 -7 -13 -6 -13 12 0 10 8 22 20 26 25
5 6 8 4 8 -5 0 -13 2 -13 9 0 6 8 7 19 3 25 -3 5 3 3 13 -5 11 -9 16 -10 11
-2 -4 7 -2 12 4 12 6 0 8 5 4 13 -5 7 0 6 11 -3 15 -12 17 -12 10 -1 -6 11 -3
13 13 9 14 -4 19 -2 15 8 -3 9 2 12 16 9 12 -2 20 1 18 8 -1 6 4 11 11 12 7 0
17 6 21 14 5 7 14 10 20 7 10 -7 16 6 12 27 -1 4 8 3 19 -3 16 -8 20 -8 18 2
-2 7 3 12 10 11 6 -2 12 5 13 15 0 10 3 12 6 5 2 -7 9 -13 14 -13 6 0 8 4 5 8
-2 4 4 14 16 21 16 10 19 10 13 -1 -4 -7 3 -2 15 12 12 14 19 19 15 13 -4 -9
-1 -11 10 -7 9 4 14 13 10 22 -4 12 -3 12 9 3 11 -9 15 -8 20 4 3 9 11 13 18
9 8 -5 9 -2 5 9 -4 12 -2 14 10 10 12 -5 14 -3 8 8 -8 12 -6 12 8 0 14 -11 18
-11 23 3 4 10 13 15 20 12 7 -3 16 0 20 6 5 7 2 8 -7 3 -10 -5 -11 -5 -4 3 6
6 17 12 25 14 8 2 21 11 28 20 7 10 19 15 28 11 10 -4 17 2 21 16 5 20 6 21
20 4 8 -10 12 -13 10 -8 -3 6 2 19 10 30 16 20 16 20 9 0 -4 -15 -1 -13 14 7
14 18 26 24 41 21 13 -4 19 -1 17 7 -2 7 3 15 11 18 9 3 11 0 7 -9 -4 -8 -1
-6 7 3 8 10 17 15 20 11 4 -3 7 1 7 10 0 11 7 15 20 12 11 -2 18 0 15 6 -4 5
1 9 10 9 10 0 13 5 9 13 -5 7 0 6 11 -3 17 -14 18 -13 12 2 -4 13 -1 16 14 13
16 -3 18 -1 10 9 -8 10 -4 12 20 11 20 -1 28 2 25 11 -3 7 2 15 10 18 9 4 12
2 8 -5 -5 -8 -1 -8 14 0 11 6 23 18 26 28 6 15 8 15 16 3 9 -13 10 -13 11 0 1
8 1 19 0 23 -1 5 3 6 9 2 13 -8 50 4 50 16 0 6 -5 7 -12 3 -6 -4 -8 -3 -4 4 3
6 20 9 36 7 18 -3 28 0 25 5 -4 6 -1 10 5 10 6 0 9 4 6 9 -4 5 4 7 16 3 16 -4
19 -2 13 8 -6 10 -4 12 9 7 14 -5 17 -3 12 8 -4 12 -2 13 14 3 10 -7 16 -16
13 -22 -3 -5 -1 -6 6 -2 9 6 9 11 -1 24 -10 12 -7 12 14 -2 15 -10 25 -23 21
-29 -3 -6 -1 -7 5 -3 7 4 12 1 12 -6 0 -9 3 -9 10 2 8 13 10 13 10 -2 0 -12 5
-15 17 -11 12 5 14 3 8 -7 -6 -10 -3 -12 13 -8 12 3 21 3 20 -1 -2 -18 3 -31
13 -31 5 0 7 5 4 11 -4 6 2 5 14 -3 12 -7 21 -17 21 -23 0 -5 5 -3 11 5 9 12
10 11 6 -6 -3 -13 1 -21 9 -21 7 0 11 5 7 10 -3 5 4 4 15 -2 12 -6 24 -17 28
-24 5 -7 0 -6 -12 3 -18 14 -18 14 -5 -3 10 -13 17 -15 27 -6 11 9 16 6 23
-12 5 -13 10 -18 10 -10 1 10 7 7 20 -7 10 -12 24 -22 31 -22 6 0 19 -8 28
-18 10 -10 13 -12 8 -5 -11 17 -2 17 16 1 35 -33 61 -52 54 -41 -4 7 -2 13 3
13 6 0 11 -7 11 -16 0 -8 4 -13 9 -10 5 3 12 -1 15 -10 4 -9 13 -14 21 -10 10
3 15 -1 16 -12 0 -10 3 -12 6 -5 3 10 7 10 18 0 7 -7 10 -16 7 -22 -3 -5 3 -3
13 5 11 9 16 10 11 3 -4 -8 -1 -13 8 -13 9 0 16 -4 16 -10 0 -5 7 -10 16 -10
8 0 22 -7 31 -15 8 -8 19 -12 25 -9 7 4 8 2 4 -4 -4 -7 -2 -12 4 -12 6 0 8 -5
4 -12 -5 -9 -2 -9 9 1 11 9 17 10 17 2 0 -6 9 -11 21 -11 11 0 18 -4 15 -9 -8
-12 20 -22 42 -15 11 4 13 3 5 -3 -9 -6 -7 -12 8 -22 16 -9 19 -9 14 0 -6 8
-4 10 4 5 7 -5 10 -14 8 -20 -3 -7 1 -13 9 -13 7 0 11 4 8 9 -3 4 0 8 5 8 10
0 15 -14 12 -33 -1 -5 3 -6 8 -3 5 3 14 -1 21 -8 6 -8 20 -13 31 -11 13 3 19
-2 19 -13 0 -15 2 -15 10 -2 8 13 10 12 10 -3 0 -10 5 -15 10 -12 6 3 10 1 10
-4 0 -6 9 -11 20 -11 11 0 20 -5 20 -11 0 -6 7 -9 14 -6 11 4 13 1 9 -11 -6
-15 -5 -16 13 -2 10 8 16 11 12 6 -11 -13 24 -45 45 -41 13 3 21 -2 24 -16 5
-16 8 -18 14 -7 7 10 9 10 9 1 0 -7 7 -13 15 -13 8 0 15 -4 15 -10 0 -5 3 -9
8 -9 24 4 34 -2 28 -18 -4 -10 -4 -14 0 -10 4 4 14 1 22 -6 13 -9 14 -9 8 1
-4 7 -1 12 8 12 9 0 15 -6 13 -13 -1 -6 6 -11 15 -11 10 1 15 -2 12 -7 -3 -5
2 -9 11 -9 10 0 13 -5 9 -12 -4 -7 -3 -8 5 -4 6 4 14 0 17 -9 6 -13 9 -14 16
-3 6 10 16 4 38 -24 23 -28 36 -35 53 -31 12 3 19 2 15 -2 -4 -4 2 -16 14 -26
26 -24 35 -24 17 -2 -13 15 -12 15 10 4 15 -8 21 -9 17 -2 -4 6 0 14 8 17 9 3
13 11 9 18 -4 6 -1 6 9 -2 13 -10 17 -10 22 3 3 8 14 15 25 15 14 0 19 5 15
15 -5 11 -2 13 10 9 9 -4 16 -1 16 6 0 7 7 10 16 6 8 -3 12 -2 9 3 -3 5 -1 12
5 16 5 3 10 1 10 -5 0 -7 5 -6 14 2 8 7 12 16 10 20 -2 4 1 10 7 14 8 5 9 3 4
-6 -5 -8 -3 -11 6 -8 8 3 13 10 12 16 -2 6 6 9 17 7 14 -3 20 2 20 13 0 15 2
15 10 2 9 -14 14 -7 11 13 -1 4 7 7 16 5 10 -2 17 2 16 9 -1 6 8 10 21 9 19
-3 24 1 21 16 -4 17 -2 18 12 6 9 -7 14 -8 11 -3 -4 6 5 15 18 22 18 8 23 8
18 0 -3 -7 6 2 20 18 14 17 24 23 23 15 -2 -8 -2 -12 0 -7 3 4 9 5 14 2 5 -4
6 1 3 10 -5 11 -2 16 7 15 28 -4 39 0 39 16 0 8 5 12 11 9 6 -4 16 1 23 11 9
11 21 15 35 11 18 -4 20 -3 10 9 -10 12 -9 13 4 9 9 -4 21 2 30 15 11 15 16
18 20 8 4 -10 6 -10 6 0 1 6 8 12 16 12 9 0 18 6 21 13 3 8 11 14 19 15 8 1
21 3 29 4 8 1 12 6 10 12 -2 6 7 16 21 23 16 7 23 7 18 1 -4 -7 -1 -8 6 -4 7
5 10 14 7 22 -4 11 -1 12 12 5 18 -10 58 10 45 22 -3 4 1 7 10 7 10 0 17 5 17
11 0 6 7 8 16 5 8 -3 13 -2 10 3 -3 5 1 12 10 15 10 4 13 2 8 -6 -4 -7 -3 -8
4 -4 7 4 12 15 13 24 0 11 2 13 6 4 3 -9 10 -7 24 9 13 15 19 18 20 8 0 -8 5
-3 10 10 8 20 11 22 26 10 12 -10 14 -10 9 -1 -4 7 -2 12 8 12 8 0 22 7 30 16
9 8 21 12 28 8 7 -5 9 -2 5 9 -3 9 0 18 9 21 9 3 12 1 9 -4 -3 -6 -1 -10 4
-10 6 0 11 5 11 10 0 6 11 15 25 22 13 6 21 16 18 22 -4 6 2 4 12 -4 11 -9 16
-10 11 -2 -5 8 -1 12 10 12 10 0 14 3 11 7 -13 12 27 32 45 22 13 -7 16 -6 12
5 -3 8 -1 17 5 21 6 3 11 1 11 -5 0 -6 5 -8 10 -5 6 4 7 11 4 17 -5 7 0 9 14
6 13 -4 20 -2 19 6 -1 6 4 10 11 8 6 -1 12 2 12 8 0 6 6 9 13 8 6 -2 11 2 10
8 -1 7 6 10 17 7 12 -3 20 0 20 6 0 7 5 9 13 5 8 -6 8 -3 -1 9 -12 14 -11 15
12 11 18 -3 29 2 38 16 14 21 34 29 22 8 -4 -7 2 -4 14 6 13 11 19 24 14 30
-9 12 -8 53 1 63 4 3 2 15 -4 26 -8 14 -8 18 0 13 6 -4 11 -4 12 1 0 4 2 18 3
30 1 12 -2 20 -7 16 -5 -3 -8 5 -7 18 4 41 1 51 -12 43 -8 -4 -10 -3 -5 2 5 5
13 10 18 10 5 1 12 2 16 3 4 0 -2 8 -13 17 -18 15 -18 15 0 10 15 -5 16 -4 8
7 -6 7 -7 18 -2 26 9 16 2 43 -9 36 -4 -2 -8 2 -8 10 0 8 4 12 8 9 4 -2 10 0
14 6 3 5 -1 10 -9 10 -9 0 -16 5 -16 11 0 6 7 8 16 5 13 -5 14 -3 6 7 -6 7 -7
18 -2 26 10 17 2 43 -11 35 -16 -10 -9 9 9 22 16 12 15 13 -8 14 -19 0 -22 2
-10 9 8 6 19 7 25 4 5 -4 1 4 -10 17 -11 13 -14 20 -7 16 15 -9 15 -1 2 25 -6
11 -7 19 -3 18 22 -4 25 3 7 17 -15 13 -16 15 -2 10 12 -3 15 -1 11 9 -3 8 -9
13 -13 10 -5 -3 -12 0 -16 6 -5 8 -3 9 6 4 10 -6 12 -4 7 9 -4 9 -3 15 2 12 5
-3 12 1 15 10 3 8 2 13 -3 10 -17 -11 -20 22 -4 43 8 12 12 25 9 28 -3 4 -6 1
-6 -5 0 -7 -4 -12 -10 -12 -5 0 -7 7 -4 15 4 9 0 15 -7 15 -9 0 -10 3 -4 8 15
11 37 53 31 60 -3 3 -6 0 -6 -6 0 -7 -4 -12 -9 -12 -8 0 -5 59 4 68 2 3 0 14
-6 25 -8 14 -8 18 0 13 6 -4 11 -4 12 1 0 4 2 18 3 30 1 12 -2 20 -7 16 -5 -3
-8 5 -7 18 1 13 1 26 0 29 -6 16 -5 48 1 45 4 -3 10 2 13 11 3 8 2 13 -3 10
-5 -3 -12 1 -15 10 -3 8 -2 12 3 9 5 -3 12 -1 16 5 6 9 -8 14 -28 11 -5 -1 -5
3 -2 9 4 6 13 9 21 6 8 -3 11 0 7 9 -3 8 -8 13 -12 10 -4 -2 -6 6 -5 18 1 12
3 26 3 30 1 5 5 5 11 2 6 -3 7 1 4 9 -3 9 -10 13 -15 10 -5 -3 -6 2 -3 10 3 9
10 13 15 10 5 -3 6 2 3 11 -5 13 -9 13 -22 3 -13 -12 -14 -11 -2 9 8 12 18 20
22 17 4 -3 5 2 2 10 -3 9 -10 13 -15 10 -5 -3 -6 2 -3 10 3 9 9 14 13 11 9 -5
8 26 -1 41 -4 5 -3 16 2 24 10 16 2 42 -11 34 -16 -10 -9 9 9 22 16 12 15 13
-8 14 -19 0 -22 2 -10 9 8 6 19 7 25 4 5 -4 1 4 -10 17 -11 13 -14 20 -7 16
15 -9 15 -1 2 25 -6 11 -7 19 -3 18 22 -4 25 3 7 17 -15 13 -16 15 -2 10 12
-3 15 -1 11 9 -3 8 -9 13 -13 10 -5 -3 -12 0 -16 6 -5 8 -3 9 6 4 10 -6 12 -4
7 9 -4 9 -3 15 2 12 5 -3 12 1 15 10 3 8 2 12 -4 9 -10 -6 -15 9 -10 30 1 6 2
27 2 49 -1 21 6 49 15 62 14 22 14 24 0 18 -12 -4 -14 0 -10 18 3 17 2 19 -5
9 -9 -12 -13 -12 -27 3 -10 9 -30 20 -46 23 -16 3 -29 12 -29 19 0 8 -3 13 -7
13 -5 -1 -19 -1 -33 0 -20 1 -22 3 -10 11 8 5 13 10 10 11 -45 8 -55 11 -62
22 -4 6 -8 8 -8 3 0 -6 -6 -2 -13 9 -8 10 -19 15 -25 11 -7 -4 -12 -1 -12 8 0
9 -7 16 -16 16 -8 0 -22 7 -31 15 -8 8 -19 13 -24 10 -5 -4 -9 -1 -9 5 0 6 -5
8 -10 5 -6 -3 -13 1 -16 9 -3 9 -10 13 -15 10 -5 -3 -9 2 -9 10 0 15 -11 20
-37 17 -7 -1 -13 3 -13 9 0 5 -9 10 -20 10 -11 0 -20 5 -20 10 0 6 -7 10 -16
10 -8 0 -12 4 -9 10 3 5 0 7 -8 4 -9 -3 -28 8 -46 25 -18 17 -35 31 -39 31 -4
0 2 -7 12 -15 11 -8 16 -15 10 -15 -17 1 -44 27 -36 35 4 5 -1 5 -10 2 -12 -4
-18 -1 -18 10 0 12 -3 13 -15 3 -12 -10 -16 -8 -24 11 -5 13 -10 20 -10 15 -1
-6 -8 -1 -17 10 -8 10 -13 13 -9 7 10 -21 -9 -14 -23 8 -7 11 -18 18 -25 16
-7 -2 -23 4 -36 14 -13 10 -28 16 -34 12 -6 -4 -7 -1 -2 7 6 10 4 12 -8 7 -11
-4 -14 -2 -10 9 3 9 0 14 -8 12 -8 -2 -13 3 -11 11 3 12 0 12 -12 1 -12 -9
-16 -9 -16 -1 0 7 -4 9 -10 6 -5 -3 -10 -1 -10 5 0 6 -5 8 -12 4 -9 -5 -8 -2
1 9 12 15 12 17 -3 11 -9 -3 -16 -1 -16 5 0 6 -5 11 -11 11 -5 0 -7 -6 -3 -12
7 -11 -18 4 -36 22 -3 3 -16 14 -30 25 -23 19 -24 19 -10 1 15 -19 14 -19 -12
-2 -16 10 -28 23 -28 28 0 6 -7 7 -16 4 -8 -3 -12 -2 -9 4 3 6 -2 10 -12 10
-10 0 -25 9 -33 20 -8 11 -25 20 -38 20 -13 0 -21 4 -17 9 3 5 -10 15 -29 22
-19 7 -32 17 -29 22 3 6 1 7 -5 3 -6 -3 -17 0 -25 8 -11 11 -17 12 -27 3 -10
-9 -11 -9 -6 1 5 7 1 12 -9 12 -9 0 -13 5 -10 10 6 9 -8 14 -27 11 -5 0 -8 4
-8 10 0 6 -7 8 -16 5 -10 -4 -13 -2 -8 6 5 8 2 9 -10 5 -10 -4 -15 -3 -11 3 3
6 0 10 -9 10 -8 0 -24 12 -35 28 -16 20 -20 22 -15 7 6 -20 5 -20 -10 -1 -9
11 -16 17 -16 13 0 -5 -6 -2 -14 5 -8 7 -12 16 -9 21 6 11 -11 9 -23 -3 -7 -7
-17 -3 -32 10 -12 12 -22 18 -22 14 0 -3 -8 2 -17 13 -10 10 -16 14 -13 8 3
-6 -3 -2 -12 8 -10 11 -25 17 -33 13 -9 -3 -15 0 -15 9 0 8 -7 15 -16 15 -9 0
-12 5 -8 13 5 7 0 6 -11 -3 -15 -12 -17 -12 -10 -1 6 11 4 13 -9 8 -11 -4 -15
-3 -10 4 4 6 0 15 -7 20 -19 12 -32 11 -24 -1 3 -6 -1 -7 -10 -4 -9 4 -14 13
-11 21 3 8 1 11 -4 8 -6 -3 -10 -1 -10 6 0 8 -4 8 -15 -1 -15 -12 -20 -4 -16
23 1 4 -11 5 -25 3 -20 -4 -27 0 -31 14 -3 11 -9 17 -14 14 -5 -3 -9 0 -9 7 0
6 -8 9 -19 6 -14 -3 -18 -1 -14 10 4 10 0 14 -13 11 -11 -2 -18 2 -16 10 1 7
-5 12 -15 10 -11 -2 -17 2 -15 11 3 12 0 12 -12 1 -12 -9 -16 -9 -16 -1 0 7
-5 9 -10 6 -6 -4 -9 -1 -8 7 2 8 -4 12 -16 10 -10 -2 -15 1 -12 6 3 6 -1 12
-9 16 -8 3 -15 0 -16 -7 -1 -7 -4 -1 -8 13 -4 14 -14 24 -21 22 -7 -2 -17 3
-21 10 -7 10 -9 10 -9 -1 0 -10 -5 -9 -17 5 -10 10 -25 20 -33 22 -8 2 -21 8
-30 13 -12 8 -11 9 5 4 14 -4 17 -3 10 4 -6 6 -23 12 -38 13 -18 2 -26 7 -23
15 3 7 2 12 -2 11 -15 -3 -72 29 -65 36 4 4 -1 4 -11 0 -13 -5 -23 -1 -32 10
-7 10 -17 15 -23 11 -6 -3 -11 -2 -11 4 0 5 3 11 8 14 4 2 2 2 -5 1 -7 -2 -19
3 -27 11 -7 8 -16 12 -19 9 -3 -3 -17 7 -32 21 -18 19 -34 26 -50 23 -16 -4
-22 -1 -18 9 3 8 -2 13 -17 13 -12 0 -18 4 -15 11 4 6 0 9 -11 7 -11 -2 -19 3
-19 12 0 10 -10 15 -32 15 -17 -1 -29 3 -27 7 3 4 -2 8 -11 8 -8 0 -18 7 -21
15 -4 8 -10 12 -15 9 -5 -3 -9 0 -9 6 0 7 -7 9 -16 6 -11 -4 -18 1 -21 15 -4
16 -8 17 -14 7 -7 -10 -9 -9 -9 5 0 9 -7 17 -15 17 -8 0 -15 3 -15 8 0 4 -10
13 -22 21 l-23 14 20 -24 20 -24 -20 15 c-11 8 -23 20 -28 27 -4 7 -15 9 -25
6 -9 -3 -14 -3 -10 2 10 10 -21 34 -44 35 -10 0 -18 5 -18 11 0 5 -5 7 -12 3
-8 -5 -9 -2 -4 11 5 15 4 16 -9 5 -10 -8 -15 -9 -15 -1 0 6 -7 11 -16 11 -8 0
-13 4 -10 8 3 5 -2 9 -10 9 -9 0 -13 -6 -10 -14 4 -9 1 -11 -5 -7 -6 4 -15 0
-20 -7 -7 -12 -9 -12 -9 1 0 9 -6 7 -16 -8 -9 -14 -22 -21 -31 -18 -8 3 -11 1
-8 -4 3 -6 -3 -10 -14 -10 -13 0 -21 -7 -21 -17 0 -15 -2 -16 -10 -3 -8 13
-10 13 -10 -2 0 -11 -5 -15 -15 -12 -8 4 -17 -1 -21 -9 -3 -9 -12 -13 -19 -11
-7 3 -16 0 -21 -7 -5 -8 -3 -10 6 -4 9 5 11 4 6 -4 -6 -9 -11 -9 -24 1 -9 7
-13 8 -10 3 10 -16 -6 -36 -31 -38 -14 -1 -20 -6 -16 -16 4 -11 3 -12 -10 -1
-13 11 -19 7 -16 -12 0 -3 -11 -5 -24 -3 -20 2 -23 -1 -14 -11 8 -10 6 -12
-11 -9 -15 3 -20 0 -17 -9 4 -10 0 -12 -14 -9 -11 3 -19 0 -19 -6 0 -7 -4 -10
-9 -7 -5 3 -12 -2 -15 -11 -6 -15 -8 -15 -16 -3 -9 13 -10 13 -11 0 -1 -8 -1
-19 0 -24 1 -5 -6 -3 -15 5 -16 12 -17 12 -11 -4 6 -15 4 -16 -16 -6 -21 12
-21 11 -7 -6 9 -11 10 -16 3 -11 -8 4 -13 2 -13 -4 0 -6 -4 -9 -9 -6 -14 9
-42 -5 -34 -17 4 -6 0 -8 -10 -4 -9 3 -18 0 -21 -8 -3 -9 -12 -12 -22 -8 -12
4 -15 3 -10 -5 4 -7 2 -12 -4 -12 -6 0 -8 -5 -4 -12 5 -8 0 -7 -11 2 -17 13
-18 13 -13 -1 5 -13 2 -16 -14 -11 -14 3 -19 1 -14 -6 4 -7 2 -13 -3 -13 -6
-1 -15 -3 -21 -4 -5 -1 -15 -3 -21 -4 -5 0 -7 -6 -3 -13 5 -8 2 -9 -10 -5 -14
6 -17 3 -12 -9 5 -14 4 -15 -9 -4 -8 7 -15 8 -15 4 0 -5 -9 -15 -21 -22 -15
-10 -19 -10 -14 -1 6 8 4 10 -4 5 -7 -5 -10 -14 -8 -20 3 -8 -4 -12 -23 -11
-19 1 -27 -3 -26 -14 1 -10 -6 -15 -16 -13 -10 2 -18 -3 -18 -11 0 -9 -9 -13
-25 -12 -14 2 -23 -1 -19 -7 3 -5 -3 -12 -15 -15 -11 -3 -19 -8 -16 -12 2 -4
-6 -7 -18 -7 -13 1 -21 -4 -19 -12 1 -8 -2 -11 -8 -7 -5 3 -10 2 -10 -3 0 -6
-8 -9 -17 -8 -10 0 -17 -4 -16 -11 2 -7 -4 -10 -12 -7 -8 4 -17 -1 -21 -10 -3
-9 -10 -14 -14 -11 -5 3 -12 0 -16 -6 -4 -8 -9 -7 -16 2 -7 10 -8 8 -5 -8 3
-15 1 -20 -9 -16 -8 3 -14 0 -14 -7 0 -6 -4 -9 -9 -6 -13 8 -42 -4 -35 -15 3
-5 -1 -9 -9 -9 -8 0 -18 -7 -21 -16 -4 -9 -9 -14 -13 -10 -3 3 -17 -1 -31 -10
-18 -12 -23 -12 -17 -3 3 8 0 6 -8 -4 -8 -9 -28 -22 -46 -28 -17 -6 -29 -15
-26 -19 6 -10 -24 -22 -36 -14 -5 3 -9 0 -9 -5 0 -6 -7 -11 -15 -11 -8 0 -14
-5 -13 -11 2 -6 -3 -14 -11 -17 -8 -2 -11 0 -8 5 3 5 -1 10 -9 10 -8 0 -13 -6
-10 -12 2 -7 -5 -11 -17 -10 -11 1 -24 11 -28 23 -5 12 -14 22 -21 22 -9 0 -9
-3 2 -10 9 -6 10 -10 3 -10 -7 0 -17 9 -23 21 -8 15 -15 17 -24 10 -9 -8 -20
-3 -41 19 -16 17 -35 28 -42 26 -7 -3 -13 1 -13 8 0 8 -7 17 -16 20 -10 4 -13
2 -9 -7 4 -6 0 -4 -8 6 -8 9 -20 17 -26 17 -7 0 -9 5 -5 13 5 8 2 7 -9 -2 -15
-12 -17 -12 -11 4 5 13 4 16 -4 11 -7 -4 -12 -2 -12 3 0 6 -9 11 -20 11 -11 0
-20 5 -20 10 0 6 -7 10 -16 10 -9 0 -25 10 -35 22 -13 14 -19 17 -19 7 -1 -9
-8 -5 -20 10 -11 13 -20 20 -20 17 0 -4 -9 2 -21 13 -12 11 -27 17 -35 14 -9
-3 -14 2 -14 13 0 16 -2 17 -10 4 -9 -13 -14 -7 -11 12 0 5 -2 7 -7 7 -20 -3
-32 2 -26 12 5 8 1 8 -14 0 -18 -9 -20 -8 -17 7 2 12 -3 18 -16 19 -12 1 -17
-3 -13 -9 4 -7 2 -8 -4 -4 -6 4 -9 13 -5 22 3 8 2 14 -3 13 -28 -5 -46 2 -40
16 3 8 1 15 -4 15 -6 0 -10 -5 -10 -11 0 -5 -5 -7 -10 -4 -6 4 -8 11 -5 16 3
5 -1 6 -9 3 -9 -3 -16 -1 -16 6 0 6 -4 8 -10 5 -5 -3 -10 -1 -10 5 0 7 -9 9
-22 6 -13 -3 -17 -3 -10 0 20 9 14 23 -9 19 -16 -3 -19 0 -15 12 5 13 4 14 -9
3 -12 -10 -15 -10 -15 4 0 10 -4 14 -10 11 -5 -3 -10 -1 -10 5 0 6 -4 8 -10 5
-5 -3 -10 2 -10 12 0 15 -2 16 -10 3 -6 -10 -10 -11 -10 -2 0 6 -8 12 -17 12
-10 0 -26 10 -38 23 -11 12 -17 18 -12 13 4 -6 7 -15 7 -21 0 -5 -8 2 -18 17
-14 22 -21 25 -30 16 -9 -9 -12 -8 -12 6 0 12 -5 16 -16 12 -8 -3 -12 -2 -9 4
3 6 -3 10 -14 10 -12 0 -21 7 -21 16 0 8 -4 12 -10 9 -5 -3 -10 -1 -10 4 0 6
-9 11 -21 11 -13 0 -18 4 -13 12 4 6 3 8 -4 4 -6 -3 -20 3 -31 15 -11 12 -24
18 -30 14 -6 -3 -11 -1 -11 5 0 7 -7 10 -15 6 -9 -3 -15 0 -15 10 0 8 -4 12
-10 9 -5 -3 -10 -2 -10 4 0 6 -7 7 -17 4 -11 -4 -14 -3 -9 5 4 7 2 12 -4 12
-6 0 -8 5 -4 11 4 8 0 8 -15 0 -12 -7 -20 -8 -19 -4 2 4 -1 8 -5 8 -5 0 -15
11 -24 25 -8 14 -12 17 -9 8 6 -21 -20 -13 -28 8 -3 9 -10 12 -16 9 -5 -3 -10
2 -10 12 0 15 -2 16 -10 3 -7 -11 -10 -11 -10 -2 0 7 -4 10 -10 7 -5 -3 -10 0
-10 9 0 9 -8 13 -25 11 -20 -2 -23 0 -14 12 10 11 8 12 -6 7 -11 -5 -16 -4
-12 3 3 5 0 10 -8 10 -8 0 -11 -5 -8 -11 4 -6 -1 -5 -10 3 -15 12 -17 11 -17
-5z m-720 -424 c0 -5 -5 -10 -11 -10 -5 0 -7 5 -4 10 3 6 8 10 11 10 2 0 4 -4
4 -10z m6500 -1121 c0 -6 -4 -7 -10 -4 -5 3 -10 11 -10 16 0 6 5 7 10 4 6 -3
10 -11 10 -16z m-7300 -9 c0 -5 -5 -10 -11 -10 -5 0 -7 5 -4 10 3 6 8 10 11
10 2 0 4 -4 4 -10z m0 -480 c0 -5 -5 -10 -11 -10 -5 0 -7 5 -4 10 3 6 8 10 11
10 2 0 4 -4 4 -10z m7710 -194 c0 -3 -4 -8 -10 -11 -5 -3 -10 -1 -10 4 0 6 5
11 10 11 6 0 10 -2 10 -4z m-7710 -286 c0 -5 -5 -10 -11 -10 -5 0 -7 5 -4 10
3 6 8 10 11 10 2 0 4 -4 4 -10z m125 -240 c-3 -5 -1 -10 6 -10 7 0 10 -3 6 -6
-9 -9 -28 6 -22 17 4 5 8 9 11 9 3 0 2 -4 -1 -10z m6866 -1233 c-10 -9 -11 -8
-5 6 3 10 9 15 12 12 3 -3 0 -11 -7 -18z m-1447 -133 c5 -14 4 -15 -9 -4 -17
14 -19 20 -6 20 5 0 12 -7 15 -16z m536 -316 c0 -6 -6 -5 -15 2 -8 7 -15 14
-15 16 0 2 7 1 15 -2 8 -4 15 -11 15 -16z"/>
<path d="M3090 5286 c0 -2 8 -10 18 -17 15 -13 16 -12 3 4 -13 16 -21 21 -21
13z"/>
<path d="M6260 5226 c0 -2 8 -10 18 -17 15 -13 16 -12 3 4 -13 16 -21 21 -21
13z"/>
<path d="M117 5173 c-10 -9 -9 -23 1 -23 5 0 9 7 9 15 0 17 -1 18 -10 8z"/>
<path d="M123 4925 c0 -8 4 -12 9 -9 5 3 6 10 3 15 -9 13 -12 11 -12 -6z"/>
<path d="M129 4588 c-5 -18 -6 -38 -1 -34 7 8 12 36 6 36 -2 0 -4 -1 -5 -2z"/>
<path d="M123 4445 c0 -8 4 -12 9 -9 5 3 6 10 3 15 -9 13 -12 11 -12 -6z"/>
<path d="M129 4108 c-5 -18 -6 -38 -1 -34 7 8 12 36 6 36 -2 0 -4 -1 -5 -2z"/>
<path d="M123 3965 c0 -8 4 -12 9 -9 5 3 6 10 3 15 -9 13 -12 11 -12 -6z"/>
<path d="M129 3628 c-5 -18 -6 -38 -1 -34 7 8 12 36 6 36 -2 0 -4 -1 -5 -2z"/>
<path d="M123 3485 c0 -8 4 -12 9 -9 5 3 6 10 3 15 -9 13 -12 11 -12 -6z"/>
<path d="M7555 2329 c-4 -6 -5 -12 -2 -15 2 -3 7 2 10 11 7 17 1 20 -8 4z"/>
<path d="M4255 2189 c-4 -6 -5 -12 -2 -15 2 -3 7 2 10 11 7 17 1 20 -8 4z"/>
</g>
</svg>
